<?xml version="1.0" encoding="utf-8"?>
<!-- Generator: Adobe Illustrator 25.4.0, SVG Export Plug-In . SVG Version: 6.00 Build 0)  -->
<svg version="1.1" id="Layer_1" xmlns="http://www.w3.org/2000/svg" xmlns:xlink="http://www.w3.org/1999/xlink" x="0px" y="0px"
	 viewBox="0 0 100 125" style="enable-background:new 0 0 100 125;" xml:space="preserve">
<style type="text/css">
	.st0{fill:#FFFFFF;}
</style>
<path class="st0" d="M56.6,86.9c-0.7,0-1.4-0.3-1.9-0.8c-1-1-1-2.7,0-3.7c8.8-8.8,13.7-20.5,13.7-33c0-12.4-4.8-24-13.5-32.8
	c-1-1-1-2.7,0-3.8c1-1,2.7-1,3.7,0c9.7,9.8,15.1,22.8,15.1,36.6c0,13.9-5.4,26.9-15.3,36.7C57.9,86.6,57.2,86.9,56.6,86.9z
	 M46.8,74.5c6.8-6.7,10.5-15.6,10.5-25.1c0-9.4-3.6-18.3-10.3-25c-1-1-2.7-1-3.7,0s-1,2.7,0,3.7c5.6,5.7,8.7,13.2,8.7,21.2
	c0,8.1-3.2,15.7-8.9,21.4c-1,1-1,2.7,0,3.7c0.5,0.5,1.2,0.8,1.9,0.8C45.6,75.3,46.3,75,46.8,74.5z M35.2,62.9
	c3.7-3.6,5.7-8.4,5.7-13.6c0-5-1.9-9.8-5.5-13.4c-1-1-2.7-1.1-3.7,0c-1,1-1.1,2.7,0,3.7c2.5,2.6,4,6,4,9.6c0,3.7-1.5,7.2-4.1,9.8
	c-1,1-1.1,2.7,0,3.7c0.5,0.5,1.2,0.8,1.9,0.8C34,63.7,34.7,63.4,35.2,62.9z"/>
</svg>
